<svg width="15" height="25" viewBox="0 0 15 25" fill="none" xmlns="http://www.w3.org/2000/svg">
<path d="M10.6777 6.1882C10.7138 6.14967 10.8825 6.02379 11.5453 6.02379L13.7182 6.02303C14.4252 6.02303 15 5.47905 15 4.81033V1.21765C15 0.550079 14.426 0.00610352 13.7203 0.00495908L10.4926 0C8.50048 0 6.807 0.621605 5.59521 1.79787C4.38886 2.96879 3.75111 4.60339 3.75111 6.52466V8.46233H1.28196C0.575046 8.46233 0 9.00631 0 9.67503V13.5443C0 14.213 0.575046 14.757 1.28196 14.757H3.75111V23.7873C3.75111 24.456 4.32616 25 5.03307 25H9.26526C9.97218 25 10.5472 24.456 10.5472 23.7873V14.7572H13.5654C14.2723 14.7572 14.8472 14.213 14.8472 13.5447L14.8488 9.67522C14.8488 9.23595 14.5961 8.8295 14.1892 8.61454C14.0007 8.51498 13.7814 8.46233 13.5551 8.46233H10.5472V6.9315C10.5472 6.43253 10.6182 6.25191 10.6777 6.1882Z" fill="white"/>
</svg>
