<svg width="25" height="25" viewBox="0 0 25 25" fill="none" xmlns="http://www.w3.org/2000/svg">
<path d="M3.03177 0C1.19858 0 0 1.25938 0 2.91466C0 4.53338 1.16287 5.82868 2.96143 5.82868H2.99622C4.86526 5.82868 6.02844 4.53338 6.02844 2.91466C5.9935 1.25938 4.86526 0 3.03177 0Z" fill="white"/>
<path d="M0.316895 8.13184H5.67609V25.0001H0.316895V8.13184Z" fill="white"/>
<path d="M18.8304 7.73584C15.9393 7.73584 14.0007 10.578 14.0007 10.578V8.13174H8.64136V25H14.0004V15.5801C14.0004 15.0758 14.0353 14.5723 14.1769 14.2117C14.5644 13.2047 15.446 12.1615 16.9266 12.1615C18.8658 12.1615 19.6414 13.7083 19.6414 15.976V25H25.0002V15.328C25.0002 10.1468 22.3561 7.73584 18.8304 7.73584Z" fill="white"/>
</svg>
