<svg width="54" height="54" viewBox="0 0 54 54" fill="none" xmlns="http://www.w3.org/2000/svg">
<path d="M49.3598 41.6003H45.0598V33.9825C45.0598 25.9096 41.9165 18.3201 36.2079 12.6123C36.047 12.4506 35.8286 12.3603 35.5998 12.3603H34.7398V9.90676L37.2837 1.42716C37.3732 1.12616 37.2932 0.800218 37.0722 0.575758C36.8511 0.352158 36.5226 0.267018 36.2242 0.353018L30.5258 1.98186L27.3851 0.411498C27.1435 0.290238 26.8579 0.290238 26.6154 0.411498L23.4738 1.98186L17.7755 0.353878C17.4762 0.268738 17.1485 0.353018 16.9275 0.576618C16.7065 0.800218 16.6257 1.12702 16.716 1.42802L19.2598 9.90676V12.3603H18.3998C18.1711 12.3603 17.9526 12.4506 17.7918 12.6123C12.3205 18.0845 9.20988 25.2973 8.96392 33.0003H8.07984H1.19984C0.724264 33.0003 0.339844 33.3856 0.339844 33.8603V52.7803C0.339844 53.2551 0.724264 53.6403 1.19984 53.6403H8.07984C8.55542 53.6403 8.93984 53.2551 8.93984 52.7803V51.9203H13.2398C13.7154 51.9203 14.0998 51.5351 14.0998 51.0603V50.2003H19.8593L24.8025 53.4959C24.9453 53.5905 25.1113 53.6403 25.2798 53.6403C25.3409 53.6403 25.4028 53.6335 25.4639 53.6206L52.9839 47.6006C53.3786 47.5137 53.6598 47.1645 53.6598 46.7603V45.9003C53.6598 43.5293 51.7309 41.6003 49.3598 41.6003ZM23.3242 3.7268C23.5315 3.78614 23.7533 3.7655 23.9451 3.66918L26.9998 2.14182L30.0554 3.66918C30.2472 3.7655 30.4682 3.78614 30.6763 3.7268L35.1845 2.43852L33.24 8.92034H30.629L31.2835 5.6489L29.597 5.31178L28.8746 8.92034H25.125L24.4026 5.31178L22.717 5.6489L23.3706 8.92034H20.7597L18.8152 2.43938L23.3242 3.7268ZM20.9798 10.6403H33.0198V12.3603H20.9798V10.6403ZM7.21984 51.9203H2.05984V34.7203H7.21984V51.0603V51.9203ZM12.3798 50.2003H8.93984V34.7203H12.3798V50.2003ZM10.6839 33.0003C10.9256 25.8735 13.7662 19.1956 18.7593 14.0803H35.2404C40.4666 19.4338 43.3398 26.4867 43.3398 33.9825V41.6003H29.4895C29.3924 41.2194 29.2169 40.8599 28.9581 40.558L24.2117 35.0213C24.0492 34.8296 23.811 34.7203 23.5598 34.7203H14.0998V33.8603C14.0998 33.3856 13.7154 33.0003 13.2398 33.0003H10.6839ZM51.9398 46.068L25.4527 51.8619L20.5971 48.6248C20.4561 48.5311 20.2893 48.4803 20.1198 48.4803H14.0998V36.4403H23.1642L27.6534 41.6769C27.7859 41.8325 27.8598 42.0312 27.8598 42.2359V43.3203C27.8598 43.7942 27.4746 44.1803 26.9998 44.1803H25.9919C25.7657 44.1803 25.5439 44.0883 25.3839 43.9284L21.5879 40.1323L20.3718 41.3484L24.1679 45.1444C24.6546 45.632 25.3031 45.9003 25.9919 45.9003H26.9998C28.4223 45.9003 29.5798 44.7428 29.5798 43.3203H49.3598C50.7823 43.3203 51.9398 44.4779 51.9398 45.9003V46.068Z" fill="#5051DB"/>
<path d="M26.9998 34.7203C32.2157 34.7203 36.4598 30.4762 36.4598 25.2603C36.4598 20.0444 32.2157 15.8003 26.9998 15.8003C21.7839 15.8003 17.5398 20.0444 17.5398 25.2603C17.5398 30.4762 21.7839 34.7203 26.9998 34.7203ZM34.7398 25.2603C34.7398 29.2369 31.7238 32.5204 27.8598 32.9495V31.122C28.8583 30.766 29.5798 29.82 29.5798 28.7003V26.9803C29.5798 25.5578 28.4222 24.4003 26.9998 24.4003C26.5251 24.4003 26.1398 24.0141 26.1398 23.5403V21.8203C26.1398 21.3464 26.5251 20.9603 26.9998 20.9603C27.4745 20.9603 27.8598 21.3464 27.8598 21.8203V22.6803H29.5798V21.8203C29.5798 20.7005 28.8583 19.7545 27.8598 19.3985V17.571C31.7238 18.0001 34.7398 21.2836 34.7398 25.2603ZM26.1398 17.571V19.3985C25.1413 19.7545 24.4198 20.7005 24.4198 21.8203V23.5403C24.4198 24.9627 25.5774 26.1203 26.9998 26.1203C27.4745 26.1203 27.8598 26.5064 27.8598 26.9803V28.7003C27.8598 29.1741 27.4745 29.5603 26.9998 29.5603C26.5251 29.5603 26.1398 29.1741 26.1398 28.7003V27.8403H24.4198V28.7003C24.4198 29.82 25.1413 30.766 26.1398 31.122V32.9495C22.2758 32.5195 19.2598 29.2369 19.2598 25.2603C19.2598 21.2836 22.2758 18.0001 26.1398 17.571Z" fill="#5051DB"/>
<path d="M33.0199 34.7201C31.5975 34.7201 30.4399 35.8777 30.4399 37.3001C30.4399 38.7226 31.5975 39.8801 33.0199 39.8801C34.4424 39.8801 35.5999 38.7226 35.5999 37.3001C35.5999 35.8777 34.4424 34.7201 33.0199 34.7201ZM33.0199 38.1601C32.5452 38.1601 32.1599 37.774 32.1599 37.3001C32.1599 36.8263 32.5452 36.4401 33.0199 36.4401C33.4947 36.4401 33.8799 36.8263 33.8799 37.3001C33.8799 37.774 33.4947 38.1601 33.0199 38.1601Z" fill="#5051DB"/>
<path d="M39.0401 36.4401C40.9373 36.4401 42.4801 34.8972 42.4801 33.0001C42.4801 31.1029 40.9373 29.5601 39.0401 29.5601C37.1429 29.5601 35.6001 31.1029 35.6001 33.0001C35.6001 34.8972 37.1429 36.4401 39.0401 36.4401ZM39.0401 31.2801C39.9887 31.2801 40.7601 32.0515 40.7601 33.0001C40.7601 33.9487 39.9887 34.7201 39.0401 34.7201C38.0915 34.7201 37.3201 33.9487 37.3201 33.0001C37.3201 32.0515 38.0915 31.2801 39.0401 31.2801Z" fill="#5051DB"/>
<path d="M3.77984 27.8403C5.677 27.8403 7.21984 26.2975 7.21984 24.4003C7.21984 22.5031 5.677 20.9603 3.77984 20.9603C1.88268 20.9603 0.339844 22.5031 0.339844 24.4003C0.339844 26.2975 1.88268 27.8403 3.77984 27.8403ZM3.77984 22.6803C4.72842 22.6803 5.49984 23.4517 5.49984 24.4003C5.49984 25.3489 4.72842 26.1203 3.77984 26.1203C2.83126 26.1203 2.05984 25.3489 2.05984 24.4003C2.05984 23.4517 2.83126 22.6803 3.77984 22.6803Z" fill="#5051DB"/>
<path d="M7.21981 20.1001C10.0656 20.1001 12.3798 17.7859 12.3798 14.9401C12.3798 12.0944 10.0656 9.78012 7.21981 9.78012C4.37407 9.78012 2.05981 12.0944 2.05981 14.9401C2.05981 17.7859 4.37407 20.1001 7.21981 20.1001ZM7.21981 11.5001C9.11698 11.5001 10.6598 13.043 10.6598 14.9401C10.6598 16.8373 9.11698 18.3801 7.21981 18.3801C5.32265 18.3801 3.77981 16.8373 3.77981 14.9401C3.77981 13.043 5.32265 11.5001 7.21981 11.5001Z" fill="#5051DB"/>
<path d="M46.7798 14.9401C46.7798 16.8373 48.3226 18.3801 50.2198 18.3801C52.1169 18.3801 53.6598 16.8373 53.6598 14.9401C53.6598 13.043 52.1169 11.5001 50.2198 11.5001C48.3226 11.5001 46.7798 13.043 46.7798 14.9401ZM50.2198 13.2201C51.1684 13.2201 51.9398 13.9915 51.9398 14.9401C51.9398 15.8887 51.1684 16.6601 50.2198 16.6601C49.2712 16.6601 48.4998 15.8887 48.4998 14.9401C48.4998 13.9915 49.2712 13.2201 50.2198 13.2201Z" fill="#5051DB"/>
<path d="M44.1998 10.6403C47.0455 10.6403 49.3598 8.32605 49.3598 5.48031C49.3598 2.63457 47.0455 0.320312 44.1998 0.320312C41.3541 0.320312 39.0398 2.63457 39.0398 5.48031C39.0398 8.32605 41.3541 10.6403 44.1998 10.6403ZM44.1998 2.04031C46.097 2.04031 47.6398 3.58315 47.6398 5.48031C47.6398 7.37747 46.097 8.92031 44.1998 8.92031C42.3026 8.92031 40.7598 7.37747 40.7598 5.48031C40.7598 3.58315 42.3026 2.04031 44.1998 2.04031Z" fill="#5051DB"/>
</svg>
