<svg width="66" height="39" viewBox="0 0 66 39" fill="none" xmlns="http://www.w3.org/2000/svg">
<path d="M33.0555 0.199814C38.8424 0.199814 43.5165 4.87389 43.5165 10.7721C43.5165 16.5591 38.8424 21.2332 33.0555 21.2332C27.1572 21.2332 22.4832 16.5591 22.4832 10.7721C22.4832 4.87389 27.1572 0.199814 33.0555 0.199814ZM33.0555 2.42557C28.3814 2.42557 24.7089 6.09805 24.7089 10.7721C24.7089 15.3349 28.3814 19.0074 33.0555 19.0074C37.6183 19.0074 41.2908 15.3349 41.2908 10.7721C41.2908 6.09805 37.6183 2.42557 33.0555 2.42557Z" fill="#5051DB"/>
<path d="M19.4786 37.3699C19.4786 37.9264 18.9221 38.3715 18.2544 38.2602C17.698 38.2602 17.2528 37.7038 17.3641 37.0361C18.2544 29.1347 24.9316 23.0139 33.0556 23.0139C41.0683 23.0139 47.8569 29.1347 48.7472 37.0361C48.7472 37.7038 48.302 38.2602 47.7456 38.2602C47.0779 38.3715 46.5214 37.9264 46.5214 37.3699C45.7424 30.4701 39.9555 25.2396 33.0556 25.2396C26.1558 25.2396 20.2576 30.4701 19.4786 37.3699Z" fill="#5051DB"/>
<path d="M53.6438 9.21416C58.2066 9.21416 61.879 12.8866 61.879 17.3381C61.879 21.9009 58.2066 25.5734 53.6438 25.5734C49.1923 25.5734 45.5198 21.9009 45.5198 17.3381C45.5198 12.8866 49.1923 9.21416 53.6438 9.21416ZM53.6438 11.4399C50.4164 11.4399 47.7455 14.1108 47.7455 17.3381C47.7455 20.6768 50.4164 23.3477 53.6438 23.3477C56.9824 23.3477 59.6533 20.6768 59.6533 17.3381C59.6533 14.1108 56.9824 11.4399 53.6438 11.4399Z" fill="#5051DB"/>
<path d="M49.1921 30.025C48.6357 30.3588 47.968 30.1363 47.6341 29.5798C47.4115 29.0234 47.6341 28.3557 48.1906 28.0218C49.8599 27.2428 51.7518 26.6863 53.6436 26.6863C59.6532 26.6863 64.7724 31.1378 65.6627 37.0361C65.774 37.5925 65.3288 38.2602 64.7724 38.2602C64.1047 38.3715 63.5482 37.9264 63.4369 37.3699C62.7692 32.4733 58.5403 28.9121 53.6436 28.9121C52.0856 28.9121 50.5276 29.3572 49.1921 30.025Z" fill="#5051DB"/>
<path d="M12.3561 9.21416C16.8076 9.21416 20.4801 12.8866 20.4801 17.3381C20.4801 21.9009 16.8076 25.5734 12.3561 25.5734C7.79334 25.5734 4.12085 21.9009 4.12085 17.3381C4.12085 12.8866 7.79334 9.21416 12.3561 9.21416ZM12.3561 11.4399C9.0175 11.4399 6.3466 14.1108 6.3466 17.3381C6.3466 20.6768 9.0175 23.3477 12.3561 23.3477C15.5835 23.3477 18.2544 20.6768 18.2544 17.3381C18.2544 14.1108 15.5835 11.4399 12.3561 11.4399Z" fill="#5051DB"/>
<path d="M2.56286 37.3699C2.45157 37.9264 1.89514 38.3715 1.3387 38.2602C0.670974 38.2602 0.225824 37.5925 0.337111 37.0361C1.22741 31.1378 6.34664 26.6863 12.3562 26.6863C14.2481 26.6863 16.1399 27.2428 17.9205 28.0218C18.3657 28.3557 18.5883 29.0234 18.3657 29.5798C18.0318 30.1363 17.3641 30.3588 16.8077 30.025C15.4722 29.3572 13.9142 28.9121 12.3562 28.9121C7.45951 28.9121 3.23059 32.4733 2.56286 37.3699Z" fill="#5051DB"/>
</svg>
