<svg width="26" height="21" viewBox="0 0 26 21" fill="none" xmlns="http://www.w3.org/2000/svg">
<path d="M25.8462 2.48608C24.885 2.90769 23.8608 3.18715 22.7931 3.32285C23.8915 2.667 24.7299 1.63638 25.1241 0.394154C24.0999 1.00477 22.9692 1.43608 21.7641 1.67677C20.7916 0.641308 19.4056 0 17.8936 0C14.9601 0 12.5984 2.38108 12.5984 5.30008C12.5984 5.72008 12.6339 6.12392 12.7212 6.50838C8.316 6.29354 4.41808 4.18223 1.79954 0.966C1.34238 1.75915 1.07423 2.667 1.07423 3.64431C1.07423 5.47938 2.01923 7.10608 3.42785 8.04785C2.57654 8.03169 1.74138 7.78454 1.03385 7.39523C1.03385 7.41138 1.03385 7.43238 1.03385 7.45338C1.03385 10.0283 2.87054 12.1671 5.27908 12.6598C4.84777 12.7777 4.37769 12.8342 3.88985 12.8342C3.55062 12.8342 3.20815 12.8148 2.88669 12.7438C3.57323 14.8422 5.52139 16.3848 7.83785 16.4349C6.03508 17.8452 3.74608 18.6948 1.26808 18.6948C0.833539 18.6948 0.416769 18.6755 0 18.6222C2.34715 20.1358 5.12885 21 8.12862 21C17.8791 21 23.2098 12.9231 23.2098 5.922C23.2098 5.68777 23.2018 5.46162 23.1905 5.23708C24.2421 4.49077 25.1257 3.55869 25.8462 2.48608Z" fill="white"/>
</svg>
